<svg width="12" height="12" viewBox="0 0 12 12" fill="none" xmlns="http://www.w3.org/2000/svg">
<g clip-path="url(#clip0_26_87)">
<path d="M11.6852 9.25838L9.25631 7.63862C8.94809 7.43472 8.53492 7.50181 8.30705 7.7928L7.59955 8.70246C7.50863 8.82235 7.34335 8.85712 7.21181 8.78405L7.07723 8.70986C6.63109 8.46669 6.07599 8.16394 4.95755 7.04511C3.83912 5.92628 3.53576 5.37075 3.29259 4.92543L3.2188 4.79085C3.14472 4.65934 3.17884 4.49335 3.29878 4.4017L4.20783 3.69442C4.49869 3.46652 4.56588 3.05347 4.36221 2.74515L2.74245 0.316311C2.53372 0.00234147 2.11496 -0.0919102 1.79183 0.102334L0.776173 0.712439C0.457049 0.900052 0.222919 1.2039 0.122879 1.56031C-0.242855 2.8929 0.0322833 5.19277 3.42019 8.58107C6.11519 11.2759 8.1215 12.0006 9.5005 12.0006C9.81786 12.0019 10.134 11.9606 10.4404 11.8778C10.7968 11.7779 11.1007 11.5437 11.2882 11.2245L11.8989 10.2095C12.0935 9.88625 11.9993 9.46723 11.6852 9.25838ZM11.5544 10.0043L10.9451 11.0199C10.8104 11.2503 10.5919 11.4197 10.3351 11.4927C9.10493 11.8304 6.95565 11.5507 3.70313 8.29813C0.450604 5.0456 0.170872 2.89651 0.508627 1.66611C0.581647 1.40909 0.751263 1.19024 0.981947 1.0554L1.9976 0.446088C2.13781 0.361726 2.31956 0.402618 2.41013 0.538863L3.29001 1.85986L4.02851 2.9675C4.11695 3.10123 4.08789 3.28048 3.96172 3.37944L3.05246 4.08673C2.77575 4.29831 2.69673 4.68116 2.8671 4.985L2.9393 5.11618C3.19487 5.58491 3.51261 6.16802 4.67264 7.32786C5.83267 8.48768 6.41559 8.80545 6.88411 9.061L7.01548 9.13339C7.3193 9.30373 7.70217 9.22473 7.91375 8.94802L8.62104 8.03876C8.72003 7.91266 8.8992 7.88363 9.03299 7.97197L11.4616 9.59173C11.598 9.68223 11.6389 9.86408 11.5544 10.0043Z" fill="white" fill-opacity="0.6"/>
</g>
<defs>
<clipPath id="clip0_26_87">
<rect width="12" height="12" fill="white"/>
</clipPath>
</defs>
</svg>
