<svg width="32" height="32" viewBox="0 0 32 32" fill="none" xmlns="http://www.w3.org/2000/svg">
<circle cx="16" cy="16" r="15.5" stroke="#E51C22"/>
<g clip-path="url(#clip0_26_108)">
<path d="M19.6689 8H12.331C9.94287 8 8 9.94287 8 12.331V19.669C8 22.0571 9.94287 24 12.331 24H19.669C22.0571 24 24 22.0571 24 19.669V12.331C24 9.94287 22.0571 8 19.6689 8V8ZM23.062 19.669C23.062 21.5399 21.5399 23.062 19.6689 23.062H12.331C10.4601 23.062 8.93799 21.5399 8.93799 19.669V12.331C8.93799 10.4601 10.4601 8.93799 12.331 8.93799H19.669C21.5399 8.93799 23.062 10.4601 23.062 12.331V19.669Z" fill="#E51C22"/>
<path d="M16.0001 11.6251C13.5877 11.6251 11.6252 13.5876 11.6252 16C11.6252 18.4123 13.5877 20.3748 16.0001 20.3748C18.4124 20.3748 20.3749 18.4123 20.3749 16C20.3749 13.5876 18.4124 11.6251 16.0001 11.6251ZM16.0001 19.4369C14.105 19.4369 12.5632 17.8951 12.5632 16C12.5632 14.105 14.105 12.5631 16.0001 12.5631C17.8952 12.5631 19.4369 14.105 19.4369 16C19.4369 17.8951 17.8952 19.4369 16.0001 19.4369Z" fill="#E51C22"/>
<path d="M20.4796 10.0714C19.7667 10.0714 19.1868 10.6514 19.1868 11.3641C19.1868 12.077 19.7667 12.657 20.4796 12.657C21.1924 12.657 21.7724 12.077 21.7724 11.3641C21.7724 10.6512 21.1924 10.0714 20.4796 10.0714ZM20.4796 11.7189C20.284 11.7189 20.1248 11.5597 20.1248 11.3641C20.1248 11.1684 20.284 11.0094 20.4796 11.0094C20.6752 11.0094 20.8344 11.1684 20.8344 11.3641C20.8344 11.5597 20.6752 11.7189 20.4796 11.7189Z" fill="#E51C22"/>
</g>
<defs>
<clipPath id="clip0_26_108">
<rect width="16" height="16" fill="white" transform="translate(8 8)"/>
</clipPath>
</defs>
</svg>
