<?xml version="1.0" standalone="no"?>
<!DOCTYPE svg PUBLIC "-//W3C//DTD SVG 20010904//EN"
 "http://www.w3.org/TR/2001/REC-SVG-20010904/DTD/svg10.dtd">
<svg version="1.0" xmlns="http://www.w3.org/2000/svg"
 width="640.000000pt" height="640.000000pt" viewBox="0 0 640.000000 640.000000"
 preserveAspectRatio="xMidYMid meet">
<metadata>
Created by potrace 1.14, written by Peter Selinger 2001-2017
</metadata>
<g transform="translate(0.000000,640.000000) scale(0.100000,-0.100000)"
fill="#000000" stroke="none">
<path d="M0 3200 l0 -3200 3200 0 3200 0 0 3200 0 3200 -3200 0 -3200 0 0
-3200z m5678 3 l-3 -368 -1130 0 -1130 0 -3 368 -2 367 1135 0 1135 0 -2 -367z
m-4290 238 c64 -33 96 -89 100 -175 7 -131 -66 -254 -183 -312 -48 -23 -64
-26 -129 -22 -65 3 -79 7 -113 34 -60 48 -86 104 -86 184 0 140 94 265 233
311 40 14 133 3 178 -20z m546 -3 c8 -13 51 -104 97 -203 45 -99 85 -184 89
-188 4 -5 24 79 44 185 21 106 40 201 43 211 5 21 63 25 63 4 0 -12 -82 -429
-95 -484 -4 -18 -12 -23 -38 -23 -32 0 -33 1 -127 198 -51 108 -97 200 -100
205 -3 4 -24 -85 -45 -198 l-39 -205 -33 0 c-29 0 -33 3 -28 23 3 12 25 125
50 250 25 126 48 233 51 238 10 18 53 9 68 -13z m984 -5 l-3 -28 -116 -3 -116
-3 -13 -72 c-7 -40 -15 -78 -17 -84 -4 -10 17 -13 86 -13 94 0 101 -3 85 -44
-5 -13 -23 -16 -94 -16 l-88 0 -10 -42 c-6 -24 -14 -64 -17 -90 l-7 -48 112 0
c110 0 111 0 108 -22 -3 -23 -6 -23 -152 -26 l-148 -3 5 23 c3 13 24 120 47
238 23 118 44 225 47 238 5 22 8 22 150 22 l144 0 -3 -27z"/>
<path d="M3606 3452 c-5 -8 32 -486 39 -509 3 -7 15 -13 28 -13 14 0 29 6 34
13 6 6 49 95 97 197 48 102 91 189 95 193 4 4 13 -59 20 -140 22 -278 19 -265
54 -261 29 3 35 13 153 258 68 140 123 259 123 263 1 5 -13 7 -30 5 -29 -3
-34 -12 -126 -205 -53 -112 -99 -203 -103 -203 -4 0 -13 91 -21 203 l-14 202
-26 3 c-14 2 -30 -3 -36 -10 -6 -7 -50 -98 -98 -203 -49 -104 -92 -194 -97
-199 -4 -6 -8 1 -8 15 0 13 -7 101 -15 194 -8 94 -15 178 -15 188 0 11 -8 17
-24 17 -14 0 -27 -4 -30 -8z"/>
<path d="M4551 3206 c-78 -139 -141 -256 -141 -260 0 -3 13 -6 28 -6 24 0 33
9 69 73 l40 72 101 3 c115 3 103 12 120 -93 7 -46 10 -50 38 -53 l30 -3 -42
258 c-24 142 -43 259 -44 261 0 1 -13 2 -29 2 -28 0 -36 -12 -170 -254z m184
-8 l7 -48 -76 0 c-42 0 -76 3 -76 6 0 3 26 54 57 113 l58 106 12 -65 c6 -36
14 -86 18 -112z"/>
<path d="M5168 3455 c-2 -3 21 -70 53 -148 l57 -144 -19 -89 c-26 -125 -25
-134 9 -134 29 0 29 1 47 103 10 56 21 109 25 117 5 8 59 78 120 155 84 105
108 141 95 143 -38 8 -64 -13 -145 -117 -47 -60 -88 -107 -91 -105 -3 2 -25
53 -49 114 -40 102 -45 110 -70 110 -15 0 -29 -2 -32 -5z"/>
<path d="M1194 3392 c-77 -43 -117 -94 -139 -177 -53 -206 133 -313 281 -161
104 107 115 279 20 337 -39 24 -120 24 -162 1z"/>
</g>
</svg>
